<svg width="60" height="53" viewBox="0 0 60 53" fill="none" xmlns="http://www.w3.org/2000/svg">
<path d="M5.625 26.25H15V18.75C15 14.6484 11.7188 11.25 7.5 11.25H6.5625C5.03906 11.25 3.75 10.0781 3.75 8.4375V2.8125C3.75 1.28906 5.03906 0 6.5625 0H7.5C17.9297 0 26.25 8.4375 26.25 18.75V46.875C26.25 50.0391 23.7891 52.5 20.625 52.5H5.625C2.57812 52.5 0 50.0391 0 46.875V31.875C0 28.8281 2.57812 26.25 5.625 26.25ZM39.375 26.25H48.75V18.75C48.75 14.6484 45.4688 11.25 41.25 11.25H40.3125C38.7891 11.25 37.5 10.0781 37.5 8.4375V2.8125C37.5 1.28906 38.7891 0 40.3125 0H41.25C51.6797 0 60 8.4375 60 18.75V46.875C60 50.0391 57.5391 52.5 54.375 52.5H39.375C36.3281 52.5 33.75 50.0391 33.75 46.875V31.875C33.75 28.8281 36.3281 26.25 39.375 26.25Z" fill="#1800AD"/>
</svg>
